<svg xmlns="http://www.w3.org/2000/svg" viewBox="0 0 871.6 1076.1"><defs><style>.cls-1{fill:#161616;}.cls-2{fill:#fff;}</style></defs><g id="Layer_2" data-name="Layer 2"><g id="Objects"><path class="cls-1" d="M871.6,435.8c0,281.19-310.94,552.77-407.53,630.35a45.15,45.15,0,0,1-56.54,0C310.94,988.57,0,717,0,435.8,0,195.11,195.11,0,435.8,0S871.6,195.11,871.6,435.8Z"/><circle class="cls-2" cx="435.8" cy="435.8" r="332.37"/><circle class="cls-1" cx="435.8" cy="435.8" r="299.25"/><path class="cls-2" d="M563.82,426.9v149a15.28,15.28,0,0,1-15.28,15.28h-65.9V471.6a15.22,15.22,0,0,0-15.23-15.22H404.18A15.22,15.22,0,0,0,389,471.6V591.13h-65.9a15.28,15.28,0,0,1-15.27-15.28v-149L435.8,333Z"/><path class="cls-2" d="M594.63,423.64a17.93,17.93,0,0,1-10.65-3.5L435.8,311.39,287.62,420.14a18,18,0,0,1-21.33-29.06L425.14,274.5a18,18,0,0,1,21.32,0L605.31,391.08a18,18,0,0,1-10.68,32.56Z"/></g></g></svg>